<svg xmlns="http://www.w3.org/2000/svg" viewBox="0 0 200 200">
  <!-- Farmer character -->
  <!-- Body -->
  <rect x="75" y="110" width="50" height="60" fill="#4169E1" rx="5"/>
  <!-- Overalls straps -->
  <rect x="85" y="110" width="8" height="30" fill="#FF6347"/>
  <rect x="107" y="110" width="8" height="30" fill="#FF6347"/>
  <!-- Head -->
  <circle cx="100" cy="70" r="30" fill="#3CB371"/>
  <circle cx="90" cy="65" r="5" fill="#000"/>
  <circle cx="110" cy="65" r="5" fill="#000"/>
  <!-- Smile -->
  <path d="M 85 80 Q 100 88 115 80" stroke="#000" stroke-width="3" fill="none" stroke-linecap="round"/>
  <!-- Straw hat -->
  <ellipse cx="100" cy="45" rx="45" ry="8" fill="#D2B48C"/>
  <ellipse cx="100" cy="45" rx="25" ry="15" fill="#DEB887"/>
  <!-- Pitchfork -->
  <line x1="140" y1="100" x2="140" y2="170" stroke="#8B4513" stroke-width="5"/>
  <line x1="130" y1="95" x2="130" y2="115" stroke="#C0C0C0" stroke-width="4"/>
  <line x1="140" y1="95" x2="140" y2="115" stroke="#C0C0C0" stroke-width="4"/>
  <line x1="150" y1="95" x2="150" y2="115" stroke="#C0C0C0" stroke-width="4"/>
  <!-- Basket -->
  <ellipse cx="60" cy="140" rx="15" ry="12" fill="#8B4513"/>
  <rect x="45" y="130" width="30" height="20" fill="#D2691E" rx="3"/>
</svg>
