<svg width="64" height="64" viewBox="0 0 64 64" xmlns="http://www.w3.org/2000/svg">
  <!-- Craving Monster Body -->
  <rect x="16" y="12" width="32" height="36" fill="#9b59b6"/>
  
  <!-- Horns -->
  <rect x="16" y="8" width="6" height="8" fill="#8e44ad"/>
  <rect x="42" y="8" width="6" height="8" fill="#8e44ad"/>
  <rect x="14" y="8" width="2" height="4" fill="#6c3483"/>
  <rect x="48" y="8" width="2" height="4" fill="#6c3483"/>
  
  <!-- Arms reaching -->
  <rect x="8" y="24" width="8" height="4" fill="#9b59b6"/>
  <rect x="4" y="20" width="8" height="4" fill="#9b59b6"/>
  <rect x="48" y="24" width="8" height="4" fill="#9b59b6"/>
  <rect x="52" y="20" width="8" height="4" fill="#9b59b6"/>
  
  <!-- Hungry eyes -->
  <rect x="22" y="20" width="6" height="6" fill="#f39c12"/>
  <rect x="36" y="20" width="6" height="6" fill="#f39c12"/>
  <rect x="24" y="22" width="2" height="2" fill="#000"/>
  <rect x="38" y="22" width="2" height="2" fill="#000"/>
  
  <!-- Open mouth/craving -->
  <rect x="24" y="32" width="16" height="12" fill="#2c3e50"/>
  <rect x="26" y="34" width="4" height="4" fill="#ecf0f1"/>
  <rect x="34" y="34" width="4" height="4" fill="#ecf0f1"/>
  
  <!-- Drool -->
  <rect x="26" y="44" width="2" height="6" fill="#3498db" opacity="0.6"/>
  <rect x="36" y="44" width="2" height="6" fill="#3498db" opacity="0.6"/>
</svg>
