<svg width="64" height="64" viewBox="0 0 64 64" xmlns="http://www.w3.org/2000/svg">
  <!-- Vape Monster Body -->
  <rect x="20" y="16" width="24" height="32" fill="#2c3e50"/>
  <rect x="16" y="20" width="4" height="24" fill="#34495e"/>
  <rect x="44" y="20" width="4" height="24" fill="#34495e"/>
  
  <!-- Vape device details -->
  <rect x="22" y="18" width="20" height="4" fill="#3498db"/>
  <rect x="24" y="20" width="16" height="2" fill="#5dade2"/>
  
  <!-- Screen -->
  <rect x="26" y="26" width="12" height="8" fill="#00ff00"/>
  <rect x="28" y="28" width="2" height="4" fill="#000"/>
  <rect x="32" y="28" width="2" height="4" fill="#000"/>
  
  <!-- Button -->
  <rect x="28" y="38" width="8" height="4" fill="#e74c3c"/>
  
  <!-- Vapor cloud -->
  <rect x="20" y="8" width="8" height="4" fill="#ecf0f1" opacity="0.6"/>
  <rect x="24" y="4" width="12" height="4" fill="#ecf0f1" opacity="0.5"/>
  <rect x="32" y="8" width="8" height="4" fill="#ecf0f1" opacity="0.4"/>
  
  <!-- Evil eyes -->
  <rect x="24" y="28" width="4" height="4" fill="#e74c3c"/>
  <rect x="36" y="28" width="4" height="4" fill="#e74c3c"/>
  
  <!-- Menacing smile -->
  <rect x="28" y="42" width="8" height="2" fill="#c0392b"/>
  <rect x="26" y="40" width="2" height="2" fill="#c0392b"/>
  <rect x="36" y="40" width="2" height="2" fill="#c0392b"/>
</svg>
