<svg width="64" height="64" viewBox="0 0 64 64" xmlns="http://www.w3.org/2000/svg">
  <!-- Cigarette Monster Body -->
  <rect x="16" y="20" width="32" height="24" fill="#f5f5dc"/>
  <rect x="12" y="24" width="4" height="16" fill="#f5f5dc"/>
  <rect x="48" y="24" width="4" height="16" fill="#f5f5dc"/>
  
  <!-- Filter -->
  <rect x="12" y="28" width="12" height="8" fill="#d4a574"/>
  
  <!-- Cigarette body texture -->
  <rect x="24" y="22" width="2" height="20" fill="#e8e8d0"/>
  <rect x="30" y="22" width="2" height="20" fill="#e8e8d0"/>
  <rect x="36" y="22" width="2" height="20" fill="#e8e8d0"/>
  <rect x="42" y="22" width="2" height="20" fill="#e8e8d0"/>
  
  <!-- Burning end with glow -->
  <rect x="48" y="28" width="8" height="8" fill="#ff6b35"/>
  <rect x="52" y="30" width="4" height="4" fill="#ff9d5c"/>
  <rect x="56" y="32" width="2" height="2" fill="#ffd700"/>
  
  <!-- Smoke -->
  <rect x="56" y="24" width="4" height="4" fill="#808080" opacity="0.5"/>
  <rect x="58" y="20" width="4" height="4" fill="#808080" opacity="0.3"/>
  
  <!-- Evil eyes -->
  <rect x="24" y="28" width="4" height="4" fill="#ff0000"/>
  <rect x="36" y="28" width="4" height="4" fill="#ff0000"/>
  
  <!-- Evil grin -->
  <rect x="28" y="36" width="8" height="2" fill="#8b0000"/>
  <rect x="26" y="34" width="2" height="2" fill="#8b0000"/>
  <rect x="36" y="34" width="2" height="2" fill="#8b0000"/>
</svg>
