<svg xmlns="http://www.w3.org/2000/svg" viewBox="0 0 160 160">
  <!-- 8-bit Professional -->
  <!-- Hair -->
  <rect x="50" y="25" width="60" height="20" fill="#4B0082"/>
  <!-- Head -->
  <rect x="55" y="45" width="50" height="40" fill="#9370DB"/>
  <!-- Eyes -->
  <rect x="65" y="55" width="10" height="10" fill="#FFFFFF"/>
  <rect x="85" y="55" width="10" height="10" fill="#FFFFFF"/>
  <rect x="68" y="58" width="5" height="5" fill="#000000"/>
  <rect x="88" y="58" width="5" height="5" fill="#000000"/>
  <!-- Smile -->
  <rect x="70" y="75" width="20" height="3" fill="#000000"/>
  <!-- Body/Suit -->
  <rect x="50" y="85" width="60" height="50" fill="#2C3E50"/>
  <!-- Shirt -->
  <rect x="60" y="90" width="40" height="20" fill="#FFFFFF"/>
  <!-- Tie -->
  <rect x="75" y="90" width="10" height="5" fill="#8B0000"/>
  <rect x="77" y="95" width="6" height="15" fill="#8B0000"/>
  <rect x="75" y="110" width="10" height="8" fill="#8B0000"/>
  <!-- Arms -->
  <rect x="30" y="95" width="20" height="35" fill="#2C3E50"/>
  <rect x="110" y="95" width="20" height="35" fill="#2C3E50"/>
  <!-- Briefcase -->
  <rect x="115" y="105" width="25" height="20" fill="#654321"/>
  <rect x="122" y="100" width="11" height="8" fill="#8B4513"/>
  <!-- Coffee Cup -->
  <rect x="20" y="105" width="15" height="18" fill="#FFFFFF"/>
  <rect x="22" y="107" width="11" height="5" fill="#8B4513"/>
  <!-- Legs -->
  <rect x="60" y="135" width="15" height="25" fill="#2C3E50"/>
  <rect x="85" y="135" width="15" height="25" fill="#2C3E50"/>
</svg>
