<svg xmlns="http://www.w3.org/2000/svg" viewBox="0 0 160 160">
  <!-- 8-bit Space Traveler -->
  <!-- Antenna -->
  <rect x="77" y="10" width="6" height="15" fill="#4DB8E8"/>
  <rect x="74" y="5" width="12" height="8" fill="#FFD700"/>
  <!-- Helmet glow -->
  <rect x="45" y="35" width="70" height="50" fill="#E0F7FF" opacity="0.4"/>
  <!-- Head -->
  <rect x="50" y="40" width="60" height="45" fill="#87CEEB"/>
  <!-- Big Eyes -->
  <rect x="60" y="50" width="15" height="20" fill="#000033"/>
  <rect x="85" y="50" width="15" height="20" fill="#000033"/>
  <!-- Eye highlights -->
  <rect x="65" y="53" width="8" height="10" fill="#FFFFFF"/>
  <rect x="90" y="53" width="8" height="10" fill="#FFFFFF"/>
  <!-- Body/Suit -->
  <rect x="45" y="85" width="70" height="50" fill="#4DB8E8"/>
  <!-- Control Panel -->
  <rect x="70" y="95" width="20" height="15" fill="#2C3E50"/>
  <rect x="73" y="98" width="4" height="4" fill="#00FF00"/>
  <rect x="78" y="98" width="4" height="4" fill="#FFD700"/>
  <rect x="83" y="98" width="4" height="4" fill="#FF0000"/>
  <rect x="75" y="105" width="10" height="3" fill="#4DB8E8"/>
  <!-- Jetpack -->
  <rect x="30" y="90" width="15" height="35" fill="#2C3E50"/>
  <rect x="115" y="90" width="15" height="35" fill="#2C3E50"/>
  <!-- Flames -->
  <rect x="33" y="125" width="9" height="10" fill="#FF6347"/>
  <rect x="118" y="125" width="9" height="10" fill="#FF6347"/>
  <rect x="35" y="135" width="5" height="8" fill="#FFD700"/>
  <rect x="120" y="135" width="5" height="8" fill="#FFD700"/>
  <!-- Legs -->
  <rect x="60" y="135" width="15" height="25" fill="#4DB8E8"/>
  <rect x="85" y="135" width="15" height="25" fill="#4DB8E8"/>
</svg>
